<?xml version="1.0" standalone="no"?>
<!DOCTYPE svg PUBLIC "-//W3C//DTD SVG 20010904//EN"
 "http://www.w3.org/TR/2001/REC-SVG-20010904/DTD/svg10.dtd">
<svg version="1.0" xmlns="http://www.w3.org/2000/svg"
 width="128.000000pt" height="128.000000pt" viewBox="0 0 128.000000 128.000000"
 preserveAspectRatio="xMidYMid meet">

<g transform="translate(0.000000,128.000000) scale(0.100000,-0.100000)"
fill="currentColor" stroke="currentColor">
<path d="M478 1129 c-29 -16 -38 -77 -38 -260 0 -158 -2 -178 -18 -192 -41
-37 -71 -23 -177 83 -85 85 -104 100 -132 100 -41 0 -77 -42 -68 -79 3 -13 40
-60 81 -105 41 -44 77 -91 81 -103 4 -19 -17 -58 -101 -181 -58 -87 -106 -168
-106 -180 0 -33 43 -72 78 -72 40 0 54 15 156 153 77 105 89 117 117 117 20 0
40 -10 60 -29 26 -26 29 -36 29 -94 0 -35 5 -79 11 -96 19 -54 92 -69 134 -26
l25 24 0 451 0 451 -25 24 c-26 27 -75 33 -107 14z"/>
<path d="M696 1119 l-26 -20 0 -459 0 -459 26 -20 c34 -26 74 -27 107 -1 23
18 25 28 28 106 4 82 5 87 37 115 58 52 78 43 163 -73 121 -167 143 -184 203
-157 29 14 47 55 36 84 -4 11 -51 84 -104 162 -57 84 -96 151 -96 166 0 16 26
54 80 115 86 97 97 125 60 162 -40 40 -68 28 -175 -80 -85 -85 -104 -100 -132
-100 -22 0 -38 8 -52 26 -20 25 -21 40 -21 220 l0 193 -26 20 c-15 12 -39 21
-54 21 -15 0 -39 -9 -54 -21z"/>
<path d="M218 1064 c-76 -41 -74 -159 2 -199 50 -26 97 -20 136 19 29 29 34
41 34 81 0 40 -5 52 -34 81 -27 27 -42 34 -72 34 -22 -1 -51 -7 -66 -16z"/>
<path d="M914 1046 c-29 -29 -34 -41 -34 -81 0 -40 5 -52 34 -81 26 -26 42
-34 70 -34 99 0 158 96 107 174 -26 39 -57 55 -104 56 -31 0 -46 -7 -73 -34z"/>
</g>
</svg>
